<svg width="24" height="30" viewBox="0 0 24 30" fill="none" xmlns="http://www.w3.org/2000/svg">
<path d="M18.9007 1.81427C19.7819 1.57703 21.3748 1.78038 21.5104 2.96661C21.6799 4.59344 24.1201 4.22062 23.7134 2.66158C22.6966 -1.13436 17.2739 -0.524295 15.5454 2.32266C14.4608 4.08505 14.3253 6.42362 14.1558 8.45716C14.0202 10.2196 14.0541 11.982 14.1219 13.7444C14.2236 15.7101 14.3591 17.6759 14.4269 19.6416C14.4608 21.2684 14.6981 23.1325 14.0541 24.6916C12.7323 27.9452 9.07195 29.1314 5.88608 27.7758C3.88643 26.8946 2.86966 25.0644 2.22571 23.1325C5.91997 23.0647 9.7498 23.1664 13.3763 22.4547C13.8169 22.3869 13.8508 21.6074 13.3763 21.5396C9.34309 20.9634 5.10655 21.3023 1.00559 21.3362C0.395528 21.3362 -0.0111792 21.9124 0.12439 22.4886C0.632774 24.4882 1.44619 26.4878 2.97134 27.9452C5.24212 30.1143 8.8347 30.6227 11.6478 29.1992C14.0541 27.9791 15.4437 25.4711 15.6809 22.8275C15.986 18.9299 15.5793 15.0662 15.5793 11.1346C15.5793 8.86386 15.6809 6.38973 16.4605 4.22062C16.8672 3.06829 17.6467 2.15319 18.9007 1.81427Z" fill="#FF5F00"/>
<path d="M2.42915 16.9978C1.92077 18.2179 2.46304 19.1669 3.44592 19.9803C4.25933 20.6581 5.44556 19.4719 4.63215 18.7941C4.19155 18.4212 3.81874 18.1162 3.92041 17.5061C3.9543 17.2011 4.22544 16.8622 4.36101 16.5911C4.59826 16.0827 4.76772 15.5743 4.73383 14.9981C4.66604 13.9136 3.9882 13.0324 2.97143 12.6934C2.59861 12.5579 2.2258 13.134 2.56472 13.4052C3.107 13.8458 3.51371 14.4897 3.37814 15.2354C3.24257 15.8793 2.6664 16.3877 2.42915 16.9978Z" fill="#FF5F00"/>
<path d="M6.69963 16.3201C6.49628 17.303 7.00466 18.4553 8.08922 18.4214C8.66539 18.4214 9.13988 17.5741 8.5976 17.1674C7.88586 16.5913 8.52982 15.9812 8.83485 15.3372C9.07209 14.8289 9.17377 14.3205 9.07209 13.7782C8.93652 12.8631 8.25868 11.948 7.2758 11.8463C6.8691 11.8124 6.76742 12.3208 6.97077 12.5581C7.44526 13.1681 7.95365 13.6426 7.64862 14.4899C7.41137 15.1339 6.8691 15.6084 6.69963 16.3201Z" fill="#FF5F00"/>
</svg>
